<svg width="24" height="24" viewBox="0 0 24 24" fill="none" xmlns="http://www.w3.org/2000/svg">
<path d="M13.2399 4.15489V4.09489C13.2399 3.81489 13.3299 3.56489 13.5099 3.34489C13.6899 3.12489 13.9199 3.01489 14.1999 3.01489C14.4799 3.01489 14.7299 3.10489 14.9499 3.28489C15.1699 3.46489 15.2899 3.70489 15.3099 4.00489C15.3299 4.30489 15.2399 4.55489 15.0399 4.75489C14.8399 4.95489 14.5999 5.05489 14.3199 5.05489L14.1399 5.11489L14.1999 5.20489L14.1399 5.53489L14.0199 6.49489C14.0599 6.53489 14.0799 6.57489 14.0799 6.61489L13.9599 7.21489C13.9199 7.29489 13.8799 7.35489 13.8399 7.39489L13.7799 7.63489C13.6999 7.95489 13.6299 8.21489 13.5699 8.41489C13.5099 8.61489 13.4599 8.77489 13.4199 8.89489V9.01489C13.3799 9.21489 13.3499 9.37489 13.3299 9.49489C13.3099 9.61489 13.2399 9.81489 13.1199 10.0949C13.0399 10.2549 13.0399 10.5149 13.1199 10.8749L13.1799 10.9349C13.1799 11.0549 13.2299 11.1949 13.3299 11.3549C13.4299 11.5149 13.4799 11.6549 13.4799 11.7749C13.5199 12.5749 13.4599 13.2549 13.2999 13.8149L13.4199 14.1749C13.8999 14.4149 14.0399 14.6749 13.8399 14.9549L14.1399 15.0749C14.6199 15.3149 14.9599 15.5249 15.1599 15.7049C15.3599 15.8849 15.5599 16.0749 15.7599 16.2749C15.9199 16.3149 16.0399 16.3749 16.1199 16.4549L16.2999 16.5149C17.1399 17.0749 17.9799 17.7549 18.8199 18.5549L19.0599 18.7349V18.7949L18.9999 18.9149L19.1799 19.0349H19.2399C19.3599 19.1149 19.4399 19.1549 19.4799 19.1549H19.5399C19.5799 19.1549 19.6199 19.1349 19.6599 19.0949L19.7799 19.0349C19.8599 18.9549 19.9399 18.8949 20.0199 18.8549H20.2599C20.2999 18.8549 20.2999 18.8749 20.2599 18.9149L20.0199 19.0349L19.7199 19.3949H20.1399L20.5599 19.4549C20.6799 19.4149 20.7799 19.3749 20.8599 19.3349L21.1599 19.1549C21.2799 19.1149 21.3999 19.1549 21.5199 19.2749H21.5799C21.6199 19.3149 21.5999 19.3749 21.5199 19.4549L20.7999 20.1149C20.5999 20.2749 20.4199 20.3749 20.2599 20.4149L19.4799 20.9549C19.4399 20.9949 19.3999 20.9949 19.3599 20.9549L19.1799 20.7149L19.0599 20.4749L18.9099 20.2649L18.7299 20.0249L18.5799 19.8449L18.4599 19.6949L18.2199 19.5149C18.1399 19.5149 18.0599 19.4949 17.9799 19.4549L17.1999 18.8549C17.0799 18.8549 16.9399 18.7949 16.7799 18.6749C16.1799 18.1549 15.7799 17.8349 15.5799 17.7149L15.2199 17.4749L14.4999 17.3549C14.2599 17.3149 13.9399 17.1949 13.5399 16.9949L13.0599 16.7549C12.7399 16.5949 12.5199 16.5149 12.3999 16.5149L12.1599 16.3949C11.9999 16.3549 11.8799 16.3149 11.7999 16.2749L11.6799 16.1549C11.5999 16.1549 11.5199 16.1749 11.4399 16.2149L10.2399 16.8149L8.7399 17.4749C8.3399 17.7949 7.9599 18.0549 7.5999 18.2549L6.9399 18.5549L5.9199 19.2749C5.8399 19.3549 5.7599 19.3549 5.6799 19.2749L5.5599 19.3949C5.4399 19.4349 5.3599 19.4549 5.3199 19.4549L5.0799 19.5749V19.6949H4.9599L4.8399 19.8749C4.7599 20.0349 4.6799 20.1249 4.5999 20.1449C4.5199 20.1649 4.4699 20.1949 4.4499 20.2349C4.4299 20.2749 4.4099 20.3049 4.3899 20.3249L4.2699 20.4449L4.0899 20.5649L3.8199 20.5349L3.4599 20.5949L3.2199 20.6549C3.0199 20.6949 2.8599 20.6649 2.7399 20.5649C2.6199 20.4649 2.5199 20.3149 2.4399 20.1149C2.3599 19.9949 2.3999 19.8949 2.5599 19.8149L2.6199 19.7549C2.6599 19.7149 2.7199 19.6949 2.7999 19.6949H3.1599L3.6399 19.5149L3.8799 19.4549C3.8799 19.3749 3.8999 19.3149 3.9399 19.2749C3.9799 19.2349 4.0399 19.2149 4.1199 19.2149V19.1549C4.0799 19.0749 4.0599 18.9949 4.0599 18.9149C4.0199 18.8349 4.0099 18.7749 4.0299 18.7349C4.0499 18.6949 4.0699 18.6749 4.0899 18.6749H4.1199L4.1799 18.8549C4.2199 19.0549 4.2799 19.1149 4.3599 19.0349L4.4199 18.9149C4.4599 18.8349 4.5199 18.7949 4.5999 18.7949L4.7199 18.9149L4.8399 18.7949L4.7799 18.7349C4.7799 18.6949 4.7999 18.6749 4.8399 18.6749L5.0799 18.4349C5.2799 18.1949 5.5199 17.9749 5.7999 17.7749C6.3599 17.3349 6.9599 16.9949 7.5999 16.7549C7.7999 16.5549 8.0199 16.4549 8.2599 16.4549C8.4199 16.1749 8.6599 15.8749 8.9799 15.5549C9.2599 15.3549 9.4599 15.2149 9.5799 15.1349C9.6599 14.9749 9.7599 14.8949 9.8799 14.8949H9.9399L10.0599 14.7749C10.1399 14.7349 10.1999 14.6949 10.2399 14.6549V14.3549C10.2399 14.1549 10.2599 13.9949 10.2999 13.8749C10.3399 13.7549 10.4399 13.6949 10.5999 13.6949L10.8399 13.4549C10.7599 13.2949 10.7199 13.1149 10.7199 12.9149H10.6599C10.5799 12.7949 10.5399 12.6749 10.5399 12.5549C10.4199 12.3549 10.3399 12.1949 10.2999 12.0749H10.1199C10.0799 12.1949 9.9799 12.2749 9.8199 12.3149L9.7599 12.4349C9.5999 12.7149 9.4599 12.9249 9.3399 13.0649C9.2199 13.2049 8.9999 13.3749 8.6799 13.5749C8.4799 13.7749 8.3399 13.9949 8.2599 14.2349C8.2199 14.3549 8.2199 14.4749 8.2599 14.5949L8.1999 14.7149H8.2599C8.2599 14.7949 8.2799 14.8349 8.3199 14.8349H8.3799C8.4599 14.8749 8.4999 14.9249 8.4999 14.9849C8.4999 15.0449 8.4399 15.0649 8.3199 15.0449C8.1999 15.0249 8.1099 14.9849 8.0499 14.9249C7.9899 14.8649 7.9399 14.8349 7.8999 14.8349L7.7199 15.0149C7.6399 15.1349 7.5599 15.1849 7.4799 15.1649C7.3999 15.1449 7.3799 15.1149 7.4199 15.0749L7.4799 15.0149C7.5199 14.9349 7.5199 14.8949 7.4799 14.8949L6.9999 15.0149C6.9599 15.0549 6.9099 15.0549 6.8499 15.0149C6.7899 14.9749 6.7999 14.9349 6.8799 14.8949L7.1799 14.7749C7.1799 14.7349 7.1599 14.7149 7.1199 14.7149C6.9599 14.7949 6.7999 14.8149 6.6399 14.7749L6.3399 14.7149L6.2799 14.6549C6.2799 14.6149 6.2999 14.5949 6.3399 14.5949C6.4999 14.6349 6.6999 14.6149 6.9399 14.5349L7.3599 14.3549L7.8399 13.8149L7.8999 13.6949C8.0599 13.3749 8.2299 13.0849 8.4099 12.8249C8.5899 12.5649 8.7799 12.3549 8.9799 12.1949L9.0399 11.9549C9.1199 11.7949 9.1999 11.6549 9.2799 11.5349C9.3599 11.4149 9.4599 11.2549 9.5799 11.0549L9.7599 10.8149C9.9199 10.5749 10.0999 10.4549 10.2999 10.4549L10.4799 10.2749C10.5199 10.2349 10.5399 10.1749 10.5399 10.0949L10.6599 9.97489L10.5999 9.91489C10.3599 9.71489 10.2399 9.53489 10.2399 9.37489C10.1999 9.09489 10.2899 8.85489 10.5099 8.65489C10.7299 8.45489 10.9499 8.36489 11.1699 8.38489C11.3899 8.40489 11.5599 8.47489 11.6799 8.59489L11.7999 8.71489C11.8399 8.71489 11.8599 8.73489 11.8599 8.77489L12.0999 8.89489V9.07489C12.1799 9.15489 12.2199 9.21489 12.2199 9.25489C12.2999 9.13489 12.4199 8.99489 12.5799 8.83489L12.8799 7.87489C12.8799 7.71489 12.9199 7.55489 12.9999 7.39489L13.1199 7.21489V7.09489L13.2999 6.37489H13.4199L13.5999 5.65489C13.6399 5.53489 13.6399 5.39489 13.5999 5.23489L13.3599 4.63489L13.2399 4.15489Z" fill="black"/>
</svg>
