<svg width="48" height="24" viewBox="0 0 48 24" fill="none" xmlns="http://www.w3.org/2000/svg">
<path d="M4.4771 4.56439C2.46683 5.01174 1.09904 6.7641 1.00608 9.01984C0.960054 10.098 1.1736 10.9023 1.71022 11.7193C1.99372 12.1332 2.89392 13.0171 3.5005 13.4708C4.55718 14.2588 4.8462 14.6393 4.78821 15.1662C4.74771 15.4952 4.57466 15.7274 4.2341 15.8865C3.40845 16.2887 2.22475 15.7898 1.26012 14.633L1.04658 14.3781V19.0894L1.43317 19.2087C2.21831 19.4527 2.47328 19.4807 3.84659 19.4807C5.07723 19.4807 5.20425 19.4698 5.60833 19.3505C6.82701 18.9764 7.82017 18.1603 8.37429 17.0885C8.4783 16.8896 8.61084 16.6004 8.66883 16.436L8.77836 16.1359V17.7627L8.78389 19.3957H12.7105L12.7225 15.8585L12.74 12.3203L14.1253 15.8413L15.517 19.3677L17.2033 19.3849L18.8895 19.3957V4.59783H14.9629L14.9509 7.80702L14.9343 11.0108L14.0102 7.80702L13.0861 4.59873H8.78389V8.94664C8.77836 13.2846 8.77836 13.3009 8.66883 13.0063C8.39177 12.2471 7.83674 11.5548 6.966 10.8861C6.62451 10.6249 6.1514 10.2562 5.9084 10.0691C5.3368 9.62626 5.0892 9.2756 5.0892 8.90145C5.0892 8.66286 5.11681 8.58966 5.2963 8.40259C5.53285 8.1414 5.79334 8.03928 6.20847 8.04561C6.66501 8.05645 7.35167 8.41343 7.85975 8.90688L8.26475 9.2982V5.06325L7.89473 4.91594C7.11511 4.615 6.67605 4.53004 5.72339 4.50745C5.10024 4.4957 4.7201 4.51287 4.4771 4.56439ZM42.4604 4.5924C42.2303 4.64934 41.8143 4.80207 41.5427 4.93854C40.7051 5.34613 39.8914 6.22005 39.5214 7.10391C39.4404 7.30273 39.3714 7.47264 39.3603 7.47806C39.3484 7.48981 39.2499 7.31358 39.1404 7.08131C38.4703 5.66967 37.1485 4.88702 35.0582 4.66018C34.6311 4.60957 33.1289 4.59783 29.9819 4.60957L25.5131 4.62675L24.5254 6.68999L23.5378 8.74872L23.5203 6.67282L23.5093 4.59783H19.4666V19.3957H23.5093V16.2887L23.5148 13.1879L24.7335 16.2887L25.9577 19.3957H33.614L33.6324 17.3659C33.6379 16.2543 33.6379 14.9222 33.6324 14.4071C33.6259 13.891 33.6434 13.5105 33.6664 13.5557C33.6894 13.6009 34.1856 14.9339 34.7691 16.5155L35.8258 19.3894L38.2567 19.4183C39.5914 19.4364 41.1966 19.4635 41.8253 19.487C42.8424 19.515 43.009 19.5033 43.4711 19.3966C44.1174 19.2463 44.7223 18.9586 45.2431 18.5539C45.7639 18.1491 46.188 17.6372 46.4856 17.0541C46.8326 16.3736 46.9596 15.8241 46.9936 14.9168C47.0691 12.9719 46.4856 11.9172 44.5572 10.4948C43.206 9.50244 42.9114 9.01442 43.3146 8.4532C43.7196 7.89288 44.6612 7.92631 45.4924 8.53273C45.8385 8.78216 46.4911 9.44009 46.4911 9.53588C46.4911 9.5648 46.5205 9.5874 46.5491 9.5874C46.584 9.5874 46.6071 8.79391 46.6071 7.32532V5.06777L46.272 4.92046C45.6139 4.63126 45.0533 4.52914 43.9221 4.50655C43.0495 4.48938 42.813 4.50203 42.4604 4.5924ZM29.5603 14.5598L29.5437 17.6099L28.175 14.3673C27.4184 12.5869 26.8008 11.1066 26.8008 11.0786C26.8008 11.056 27.4175 9.77447 28.1686 8.23811L29.5437 5.4365L29.5603 8.47579C29.5667 10.1486 29.5667 12.887 29.5603 14.5598ZM34.7176 8.03928C35.2772 8.35107 35.5718 8.97466 35.5027 9.72928C35.4217 10.7153 34.7866 11.3958 33.949 11.4012H33.614V7.81244L34.0125 7.84136C34.319 7.86396 34.4866 7.91366 34.7176 8.03928ZM40.4225 12.4396C40.6941 12.7171 41.1792 13.1481 41.4967 13.3976C41.8143 13.647 42.1953 13.9471 42.3509 14.0718C43.229 14.7975 42.998 15.8241 41.9118 16.0166C41.2022 16.1413 39.943 15.4608 39.3659 14.6393C39.2738 14.5083 39.1753 14.4071 39.1523 14.4071C39.1229 14.4071 39.0943 14.962 39.0879 15.6362L39.0713 16.8616L38.1877 15.0641C37.6971 14.0718 37.3096 13.2611 37.3215 13.2557C37.9217 12.9611 38.0892 12.8418 38.4703 12.4785C38.8173 12.1441 38.9618 11.9453 39.1578 11.5603L39.4064 11.0668L39.6659 11.4979C39.8104 11.7419 40.14 12.1504 40.4225 12.4396Z" fill="black"/>
</svg>
